<mxfile host="app.diagrams.net" modified="2023-11-18T15:11:40.773Z" agent="Mozilla/5.0 (Windows NT 10.0; Win64; x64) AppleWebKit/537.36 (KHTML, like Gecko) Chrome/119.0.0.0 Safari/537.36 Edg/119.0.0.0" etag="DxZcavDxwRtCMNClHvaq" version="22.1.3" type="google">
  <diagram name="Page-1" id="Y_XIVPLSbeTT0fTXCSYw">
    <mxGraphModel grid="1" page="1" gridSize="10" guides="1" tooltips="1" connect="1" arrows="1" fold="1" pageScale="1" pageWidth="1200" pageHeight="1920" math="0" shadow="0">
      <root>
        <mxCell id="0" />
        <mxCell id="1" parent="0" />
        <mxCell id="b3-rq_WjQlA8YxyIdwE0-1" value="&lt;p style=&quot;margin:0px;margin-top:4px;margin-left:5px;text-align:left;&quot;&gt;&lt;b&gt;sd&lt;/b&gt;  U1 Find Nearby Carpark&lt;/p&gt;" style="html=1;shape=mxgraph.sysml.package;overflow=fill;labelX=161.5;align=left;spacingLeft=5;verticalAlign=top;spacingTop=-3;movable=1;resizable=1;rotatable=1;deletable=1;editable=1;locked=0;connectable=1;" vertex="1" parent="1">
          <mxGeometry x="90" y="40" width="2060" height="1140" as="geometry" />
        </mxCell>
        <mxCell id="b3-rq_WjQlA8YxyIdwE0-6" value="Guest" style="shape=umlLifeline;perimeter=lifelinePerimeter;whiteSpace=wrap;html=1;container=1;dropTarget=0;collapsible=0;recursiveResize=0;outlineConnect=0;portConstraint=eastwest;newEdgeStyle={&quot;curved&quot;:0,&quot;rounded&quot;:0};participant=umlActor;" vertex="1" parent="1">
          <mxGeometry x="120" y="81" width="20" height="1099" as="geometry" />
        </mxCell>
        <mxCell id="b3-rq_WjQlA8YxyIdwE0-49" value="" style="html=1;points=[[0,0,0,0,5],[0,1,0,0,-5],[1,0,0,0,5],[1,1,0,0,-5]];perimeter=orthogonalPerimeter;outlineConnect=0;targetShapes=umlLifeline;portConstraint=eastwest;newEdgeStyle={&quot;curved&quot;:0,&quot;rounded&quot;:0};" vertex="1" parent="b3-rq_WjQlA8YxyIdwE0-6">
          <mxGeometry x="5" y="70" width="10" height="329" as="geometry" />
        </mxCell>
        <mxCell id="xfMOsYi-v5C7950PNOb1-2" value="" style="html=1;points=[[0,0,0,0,5],[0,1,0,0,-5],[1,0,0,0,5],[1,1,0,0,-5]];perimeter=orthogonalPerimeter;outlineConnect=0;targetShapes=umlLifeline;portConstraint=eastwest;newEdgeStyle={&quot;curved&quot;:0,&quot;rounded&quot;:0};" vertex="1" parent="b3-rq_WjQlA8YxyIdwE0-6">
          <mxGeometry x="5" y="429" width="10" height="661" as="geometry" />
        </mxCell>
        <mxCell id="b3-rq_WjQlA8YxyIdwE0-10" value="SearchUI" style="shape=umlLifeline;perimeter=lifelinePerimeter;whiteSpace=wrap;html=1;container=1;dropTarget=0;collapsible=0;recursiveResize=0;outlineConnect=0;portConstraint=eastwest;newEdgeStyle={&quot;curved&quot;:0,&quot;rounded&quot;:0};participant=umlBoundary;" vertex="1" parent="1">
          <mxGeometry x="222" y="81" width="50" height="1099" as="geometry" />
        </mxCell>
        <mxCell id="b3-rq_WjQlA8YxyIdwE0-19" value="" style="html=1;points=[[0,0,0,0,5],[0,1,0,0,-5],[1,0,0,0,5],[1,1,0,0,-5]];perimeter=orthogonalPerimeter;outlineConnect=0;targetShapes=umlLifeline;portConstraint=eastwest;newEdgeStyle={&quot;curved&quot;:0,&quot;rounded&quot;:0};" vertex="1" parent="b3-rq_WjQlA8YxyIdwE0-10">
          <mxGeometry x="20" y="82" width="10" height="18" as="geometry" />
        </mxCell>
        <mxCell id="b3-rq_WjQlA8YxyIdwE0-45" value="" style="html=1;points=[[0,0,0,0,5],[0,1,0,0,-5],[1,0,0,0,5],[1,1,0,0,-5]];perimeter=orthogonalPerimeter;outlineConnect=0;targetShapes=umlLifeline;portConstraint=eastwest;newEdgeStyle={&quot;curved&quot;:0,&quot;rounded&quot;:0};" vertex="1" parent="b3-rq_WjQlA8YxyIdwE0-10">
          <mxGeometry x="20" y="320" width="10" height="70" as="geometry" />
        </mxCell>
        <mxCell id="b3-rq_WjQlA8YxyIdwE0-47" value="" style="html=1;points=[[0,0,0,0,5],[0,1,0,0,-5],[1,0,0,0,5],[1,1,0,0,-5]];perimeter=orthogonalPerimeter;outlineConnect=0;targetShapes=umlLifeline;portConstraint=eastwest;newEdgeStyle={&quot;curved&quot;:0,&quot;rounded&quot;:0};" vertex="1" parent="b3-rq_WjQlA8YxyIdwE0-10">
          <mxGeometry x="25" y="360" width="10" height="20" as="geometry" />
        </mxCell>
        <mxCell id="b3-rq_WjQlA8YxyIdwE0-48" value="recompose()" style="html=1;align=left;spacingLeft=2;endArrow=block;rounded=0;edgeStyle=orthogonalEdgeStyle;curved=0;rounded=0;" edge="1" parent="b3-rq_WjQlA8YxyIdwE0-10" target="b3-rq_WjQlA8YxyIdwE0-47">
          <mxGeometry relative="1" as="geometry">
            <mxPoint x="30" y="340" as="sourcePoint" />
            <Array as="points">
              <mxPoint x="60" y="370" />
            </Array>
          </mxGeometry>
        </mxCell>
        <mxCell id="xfMOsYi-v5C7950PNOb1-3" value="" style="html=1;points=[[0,0,0,0,5],[0,1,0,0,-5],[1,0,0,0,5],[1,1,0,0,-5]];perimeter=orthogonalPerimeter;outlineConnect=0;targetShapes=umlLifeline;portConstraint=eastwest;newEdgeStyle={&quot;curved&quot;:0,&quot;rounded&quot;:0};" vertex="1" parent="b3-rq_WjQlA8YxyIdwE0-10">
          <mxGeometry x="20" y="434" width="10" height="76" as="geometry" />
        </mxCell>
        <mxCell id="xfMOsYi-v5C7950PNOb1-9" value="" style="html=1;points=[[0,0,0,0,5],[0,1,0,0,-5],[1,0,0,0,5],[1,1,0,0,-5]];perimeter=orthogonalPerimeter;outlineConnect=0;targetShapes=umlLifeline;portConstraint=eastwest;newEdgeStyle={&quot;curved&quot;:0,&quot;rounded&quot;:0};" vertex="1" parent="b3-rq_WjQlA8YxyIdwE0-10">
          <mxGeometry x="25" y="480" width="10" height="20" as="geometry" />
        </mxCell>
        <mxCell id="xfMOsYi-v5C7950PNOb1-10" value="close()" style="html=1;align=left;spacingLeft=2;endArrow=block;rounded=0;edgeStyle=orthogonalEdgeStyle;curved=0;rounded=0;" edge="1" parent="b3-rq_WjQlA8YxyIdwE0-10" target="xfMOsYi-v5C7950PNOb1-9">
          <mxGeometry relative="1" as="geometry">
            <mxPoint x="30" y="460" as="sourcePoint" />
            <Array as="points">
              <mxPoint x="60" y="490" />
            </Array>
          </mxGeometry>
        </mxCell>
        <mxCell id="xfMOsYi-v5C7950PNOb1-11" value="" style="html=1;points=[[0,0,0,0,5],[0,1,0,0,-5],[1,0,0,0,5],[1,1,0,0,-5]];perimeter=orthogonalPerimeter;outlineConnect=0;targetShapes=umlLifeline;portConstraint=eastwest;newEdgeStyle={&quot;curved&quot;:0,&quot;rounded&quot;:0};" vertex="1" parent="b3-rq_WjQlA8YxyIdwE0-10">
          <mxGeometry x="20" y="51" width="10" height="9" as="geometry" />
        </mxCell>
        <mxCell id="b3-rq_WjQlA8YxyIdwE0-11" value="SearchViewModel" style="shape=umlLifeline;perimeter=lifelinePerimeter;whiteSpace=wrap;html=1;container=1;dropTarget=0;collapsible=0;recursiveResize=0;outlineConnect=0;portConstraint=eastwest;newEdgeStyle={&quot;curved&quot;:0,&quot;rounded&quot;:0};participant=umlControl;" vertex="1" parent="1">
          <mxGeometry x="405" y="81" width="36" height="1099" as="geometry" />
        </mxCell>
        <mxCell id="b3-rq_WjQlA8YxyIdwE0-22" value="" style="html=1;points=[[0,0,0,0,5],[0,1,0,0,-5],[1,0,0,0,5],[1,1,0,0,-5]];perimeter=orthogonalPerimeter;outlineConnect=0;targetShapes=umlLifeline;portConstraint=eastwest;newEdgeStyle={&quot;curved&quot;:0,&quot;rounded&quot;:0};" vertex="1" parent="b3-rq_WjQlA8YxyIdwE0-11">
          <mxGeometry x="13" y="90" width="10" height="220" as="geometry" />
        </mxCell>
        <mxCell id="b3-rq_WjQlA8YxyIdwE0-30" value="" style="html=1;points=[[0,0,0,0,5],[0,1,0,0,-5],[1,0,0,0,5],[1,1,0,0,-5]];perimeter=orthogonalPerimeter;outlineConnect=0;targetShapes=umlLifeline;portConstraint=eastwest;newEdgeStyle={&quot;curved&quot;:0,&quot;rounded&quot;:0};" vertex="1" parent="b3-rq_WjQlA8YxyIdwE0-11">
          <mxGeometry x="20" y="120" width="10" height="20" as="geometry" />
        </mxCell>
        <mxCell id="b3-rq_WjQlA8YxyIdwE0-31" value="searchAndUpdate(query)" style="html=1;align=left;spacingLeft=2;endArrow=block;rounded=0;edgeStyle=orthogonalEdgeStyle;curved=0;rounded=0;" edge="1" parent="b3-rq_WjQlA8YxyIdwE0-11" target="b3-rq_WjQlA8YxyIdwE0-30">
          <mxGeometry relative="1" as="geometry">
            <mxPoint x="25" y="100" as="sourcePoint" />
            <Array as="points">
              <mxPoint x="55" y="130" />
            </Array>
          </mxGeometry>
        </mxCell>
        <mxCell id="b3-rq_WjQlA8YxyIdwE0-34" value="" style="html=1;points=[[0,0,0,0,5],[0,1,0,0,-5],[1,0,0,0,5],[1,1,0,0,-5]];perimeter=orthogonalPerimeter;outlineConnect=0;targetShapes=umlLifeline;portConstraint=eastwest;newEdgeStyle={&quot;curved&quot;:0,&quot;rounded&quot;:0};" vertex="1" parent="b3-rq_WjQlA8YxyIdwE0-11">
          <mxGeometry x="20" y="170" width="10" height="20" as="geometry" />
        </mxCell>
        <mxCell id="b3-rq_WjQlA8YxyIdwE0-35" value="cancelLastRequest()" style="html=1;align=left;spacingLeft=2;endArrow=block;rounded=0;edgeStyle=orthogonalEdgeStyle;curved=0;rounded=0;" edge="1" parent="b3-rq_WjQlA8YxyIdwE0-11" target="b3-rq_WjQlA8YxyIdwE0-34">
          <mxGeometry relative="1" as="geometry">
            <mxPoint x="25" y="150" as="sourcePoint" />
            <Array as="points">
              <mxPoint x="55" y="180" />
            </Array>
          </mxGeometry>
        </mxCell>
        <mxCell id="b3-rq_WjQlA8YxyIdwE0-39" value="" style="html=1;points=[[0,0,0,0,5],[0,1,0,0,-5],[1,0,0,0,5],[1,1,0,0,-5]];perimeter=orthogonalPerimeter;outlineConnect=0;targetShapes=umlLifeline;portConstraint=eastwest;newEdgeStyle={&quot;curved&quot;:0,&quot;rounded&quot;:0};" vertex="1" parent="b3-rq_WjQlA8YxyIdwE0-11">
          <mxGeometry x="20" y="280" width="10" height="20" as="geometry" />
        </mxCell>
        <mxCell id="b3-rq_WjQlA8YxyIdwE0-40" value="set(searchResults, value)" style="html=1;align=left;spacingLeft=2;endArrow=block;rounded=0;edgeStyle=orthogonalEdgeStyle;curved=0;rounded=0;" edge="1" parent="b3-rq_WjQlA8YxyIdwE0-11" target="b3-rq_WjQlA8YxyIdwE0-39">
          <mxGeometry relative="1" as="geometry">
            <mxPoint x="25" y="260" as="sourcePoint" />
            <Array as="points">
              <mxPoint x="55" y="290" />
            </Array>
          </mxGeometry>
        </mxCell>
        <mxCell id="b3-rq_WjQlA8YxyIdwE0-44" value="" style="html=1;points=[[0,0,0,0,5],[0,1,0,0,-5],[1,0,0,0,5],[1,1,0,0,-5]];perimeter=orthogonalPerimeter;outlineConnect=0;targetShapes=umlLifeline;portConstraint=eastwest;newEdgeStyle={&quot;curved&quot;:0,&quot;rounded&quot;:0};" vertex="1" parent="b3-rq_WjQlA8YxyIdwE0-11">
          <mxGeometry x="15" y="320" width="10" height="20" as="geometry" />
        </mxCell>
        <mxCell id="xfMOsYi-v5C7950PNOb1-13" value="" style="html=1;points=[[0,0,0,0,5],[0,1,0,0,-5],[1,0,0,0,5],[1,1,0,0,-5]];perimeter=orthogonalPerimeter;outlineConnect=0;targetShapes=umlLifeline;portConstraint=eastwest;newEdgeStyle={&quot;curved&quot;:0,&quot;rounded&quot;:0};" vertex="1" parent="b3-rq_WjQlA8YxyIdwE0-11">
          <mxGeometry x="13" y="50" width="10" height="11" as="geometry" />
        </mxCell>
        <mxCell id="b3-rq_WjQlA8YxyIdwE0-12" value="LocationService" style="shape=umlLifeline;perimeter=lifelinePerimeter;whiteSpace=wrap;html=1;container=1;dropTarget=0;collapsible=0;recursiveResize=0;outlineConnect=0;portConstraint=eastwest;newEdgeStyle={&quot;curved&quot;:0,&quot;rounded&quot;:0};participant=umlControl;" vertex="1" parent="1">
          <mxGeometry x="580" y="80" width="40" height="1100" as="geometry" />
        </mxCell>
        <mxCell id="b3-rq_WjQlA8YxyIdwE0-25" value="" style="html=1;points=[[0,0,0,0,5],[0,1,0,0,-5],[1,0,0,0,5],[1,1,0,0,-5]];perimeter=orthogonalPerimeter;outlineConnect=0;targetShapes=umlLifeline;portConstraint=eastwest;newEdgeStyle={&quot;curved&quot;:0,&quot;rounded&quot;:0};" vertex="1" parent="b3-rq_WjQlA8YxyIdwE0-12">
          <mxGeometry x="15" y="200" width="10" height="50" as="geometry" />
        </mxCell>
        <mxCell id="b3-rq_WjQlA8YxyIdwE0-13" value="OneMapApi" style="shape=umlLifeline;perimeter=lifelinePerimeter;whiteSpace=wrap;html=1;container=1;dropTarget=0;collapsible=0;recursiveResize=0;outlineConnect=0;portConstraint=eastwest;newEdgeStyle={&quot;curved&quot;:0,&quot;rounded&quot;:0};participant=umlBoundary;" vertex="1" parent="1">
          <mxGeometry x="690" y="80" width="50" height="1100" as="geometry" />
        </mxCell>
        <mxCell id="b3-rq_WjQlA8YxyIdwE0-36" value="" style="html=1;points=[[0,0,0,0,5],[0,1,0,0,-5],[1,0,0,0,5],[1,1,0,0,-5]];perimeter=orthogonalPerimeter;outlineConnect=0;targetShapes=umlLifeline;portConstraint=eastwest;newEdgeStyle={&quot;curved&quot;:0,&quot;rounded&quot;:0};" vertex="1" parent="b3-rq_WjQlA8YxyIdwE0-13">
          <mxGeometry x="20" y="207" width="10" height="33" as="geometry" />
        </mxCell>
        <mxCell id="b3-rq_WjQlA8YxyIdwE0-15" value="MapViewModel" style="shape=umlLifeline;perimeter=lifelinePerimeter;whiteSpace=wrap;html=1;container=1;dropTarget=0;collapsible=0;recursiveResize=0;outlineConnect=0;portConstraint=eastwest;newEdgeStyle={&quot;curved&quot;:0,&quot;rounded&quot;:0};participant=umlControl;" vertex="1" parent="1">
          <mxGeometry x="1001" y="80" width="39" height="1100" as="geometry" />
        </mxCell>
        <mxCell id="xfMOsYi-v5C7950PNOb1-6" value="" style="html=1;points=[[0,0,0,0,5],[0,1,0,0,-5],[1,0,0,0,5],[1,1,0,0,-5]];perimeter=orthogonalPerimeter;outlineConnect=0;targetShapes=umlLifeline;portConstraint=eastwest;newEdgeStyle={&quot;curved&quot;:0,&quot;rounded&quot;:0};" vertex="1" parent="b3-rq_WjQlA8YxyIdwE0-15">
          <mxGeometry x="14.5" y="444" width="10" height="526" as="geometry" />
        </mxCell>
        <mxCell id="xfMOsYi-v5C7950PNOb1-25" value="" style="html=1;points=[[0,0,0,0,5],[0,1,0,0,-5],[1,0,0,0,5],[1,1,0,0,-5]];perimeter=orthogonalPerimeter;outlineConnect=0;targetShapes=umlLifeline;portConstraint=eastwest;newEdgeStyle={&quot;curved&quot;:0,&quot;rounded&quot;:0};" vertex="1" parent="b3-rq_WjQlA8YxyIdwE0-15">
          <mxGeometry x="14.5" y="60" width="10" height="11" as="geometry" />
        </mxCell>
        <mxCell id="xfMOsYi-v5C7950PNOb1-36" value="" style="html=1;points=[[0,0,0,0,5],[0,1,0,0,-5],[1,0,0,0,5],[1,1,0,0,-5]];perimeter=orthogonalPerimeter;outlineConnect=0;targetShapes=umlLifeline;portConstraint=eastwest;newEdgeStyle={&quot;curved&quot;:0,&quot;rounded&quot;:0};" vertex="1" parent="b3-rq_WjQlA8YxyIdwE0-15">
          <mxGeometry x="14.5" y="83.5" width="10" height="9" as="geometry" />
        </mxCell>
        <mxCell id="xfMOsYi-v5C7950PNOb1-47" value="" style="html=1;points=[[0,0,0,0,5],[0,1,0,0,-5],[1,0,0,0,5],[1,1,0,0,-5]];perimeter=orthogonalPerimeter;outlineConnect=0;targetShapes=umlLifeline;portConstraint=eastwest;newEdgeStyle={&quot;curved&quot;:0,&quot;rounded&quot;:0};" vertex="1" parent="b3-rq_WjQlA8YxyIdwE0-15">
          <mxGeometry x="19" y="484" width="10" height="16" as="geometry" />
        </mxCell>
        <mxCell id="xfMOsYi-v5C7950PNOb1-48" value="moveMapCamera(location)" style="html=1;align=left;spacingLeft=2;endArrow=block;rounded=0;edgeStyle=orthogonalEdgeStyle;curved=0;rounded=0;" edge="1" parent="b3-rq_WjQlA8YxyIdwE0-15" target="xfMOsYi-v5C7950PNOb1-47">
          <mxGeometry relative="1" as="geometry">
            <mxPoint x="24" y="464" as="sourcePoint" />
            <Array as="points">
              <mxPoint x="54" y="494" />
            </Array>
          </mxGeometry>
        </mxCell>
        <mxCell id="xfMOsYi-v5C7950PNOb1-49" value="" style="html=1;points=[[0,0,0,0,5],[0,1,0,0,-5],[1,0,0,0,5],[1,1,0,0,-5]];perimeter=orthogonalPerimeter;outlineConnect=0;targetShapes=umlLifeline;portConstraint=eastwest;newEdgeStyle={&quot;curved&quot;:0,&quot;rounded&quot;:0};" vertex="1" parent="b3-rq_WjQlA8YxyIdwE0-15">
          <mxGeometry x="19" y="540" width="10" height="20" as="geometry" />
        </mxCell>
        <mxCell id="xfMOsYi-v5C7950PNOb1-50" value="set(destination, location)" style="html=1;align=left;spacingLeft=2;endArrow=block;rounded=0;edgeStyle=orthogonalEdgeStyle;curved=0;rounded=0;" edge="1" parent="b3-rq_WjQlA8YxyIdwE0-15" target="xfMOsYi-v5C7950PNOb1-49">
          <mxGeometry relative="1" as="geometry">
            <mxPoint x="24" y="520" as="sourcePoint" />
            <Array as="points">
              <mxPoint x="54" y="550" />
            </Array>
          </mxGeometry>
        </mxCell>
        <mxCell id="xfMOsYi-v5C7950PNOb1-93" value="" style="html=1;points=[[0,0,0,0,5],[0,1,0,0,-5],[1,0,0,0,5],[1,1,0,0,-5]];perimeter=orthogonalPerimeter;outlineConnect=0;targetShapes=umlLifeline;portConstraint=eastwest;newEdgeStyle={&quot;curved&quot;:0,&quot;rounded&quot;:0};" vertex="1" parent="b3-rq_WjQlA8YxyIdwE0-15">
          <mxGeometry x="20" y="890" width="10" height="70" as="geometry" />
        </mxCell>
        <mxCell id="xfMOsYi-v5C7950PNOb1-94" value="set(nearbyCarparks, value)" style="html=1;align=left;spacingLeft=2;endArrow=block;rounded=0;edgeStyle=orthogonalEdgeStyle;curved=0;rounded=0;" edge="1" parent="b3-rq_WjQlA8YxyIdwE0-15" target="xfMOsYi-v5C7950PNOb1-93">
          <mxGeometry relative="1" as="geometry">
            <mxPoint x="25" y="870" as="sourcePoint" />
            <Array as="points">
              <mxPoint x="55" y="900" />
            </Array>
          </mxGeometry>
        </mxCell>
        <mxCell id="xfMOsYi-v5C7950PNOb1-95" value="" style="html=1;points=[[0,0,0,0,5],[0,1,0,0,-5],[1,0,0,0,5],[1,1,0,0,-5]];perimeter=orthogonalPerimeter;outlineConnect=0;targetShapes=umlLifeline;portConstraint=eastwest;newEdgeStyle={&quot;curved&quot;:0,&quot;rounded&quot;:0};" vertex="1" parent="b3-rq_WjQlA8YxyIdwE0-15">
          <mxGeometry x="25" y="930" width="10" height="20" as="geometry" />
        </mxCell>
        <mxCell id="xfMOsYi-v5C7950PNOb1-96" value="set(finalCarparks, sortAndFilter(nearbyCarparks))" style="html=1;align=left;spacingLeft=2;endArrow=block;rounded=0;edgeStyle=orthogonalEdgeStyle;curved=0;rounded=0;" edge="1" parent="b3-rq_WjQlA8YxyIdwE0-15" target="xfMOsYi-v5C7950PNOb1-95">
          <mxGeometry relative="1" as="geometry">
            <mxPoint x="30" y="910" as="sourcePoint" />
            <Array as="points">
              <mxPoint x="60" y="940" />
            </Array>
          </mxGeometry>
        </mxCell>
        <mxCell id="xfMOsYi-v5C7950PNOb1-103" value="" style="html=1;points=[[0,0,0,0,5],[0,1,0,0,-5],[1,0,0,0,5],[1,1,0,0,-5]];perimeter=orthogonalPerimeter;outlineConnect=0;targetShapes=umlLifeline;portConstraint=eastwest;newEdgeStyle={&quot;curved&quot;:0,&quot;rounded&quot;:0};" vertex="1" parent="b3-rq_WjQlA8YxyIdwE0-15">
          <mxGeometry x="15" y="980" width="10" height="20" as="geometry" />
        </mxCell>
        <mxCell id="b3-rq_WjQlA8YxyIdwE0-20" value="(1) search destination" style="html=1;verticalAlign=bottom;endArrow=block;curved=0;rounded=0;entryX=0;entryY=0;entryDx=0;entryDy=5;" edge="1" parent="1" source="b3-rq_WjQlA8YxyIdwE0-49" target="b3-rq_WjQlA8YxyIdwE0-19">
          <mxGeometry relative="1" as="geometry">
            <mxPoint x="135" y="168" as="sourcePoint" />
          </mxGeometry>
        </mxCell>
        <mxCell id="b3-rq_WjQlA8YxyIdwE0-23" value="onSearchText(query)" style="html=1;verticalAlign=bottom;endArrow=block;curved=0;rounded=0;entryX=0;entryY=0;entryDx=0;entryDy=5;" edge="1" parent="1" source="b3-rq_WjQlA8YxyIdwE0-19" target="b3-rq_WjQlA8YxyIdwE0-22">
          <mxGeometry relative="1" as="geometry">
            <mxPoint x="201" y="175" as="sourcePoint" />
          </mxGeometry>
        </mxCell>
        <mxCell id="b3-rq_WjQlA8YxyIdwE0-26" value="resolve(query)" style="html=1;verticalAlign=bottom;endArrow=block;curved=0;rounded=0;entryX=0;entryY=0;entryDx=0;entryDy=5;" edge="1" parent="1" source="b3-rq_WjQlA8YxyIdwE0-22" target="b3-rq_WjQlA8YxyIdwE0-25">
          <mxGeometry relative="1" as="geometry">
            <mxPoint x="297" y="195" as="sourcePoint" />
          </mxGeometry>
        </mxCell>
        <mxCell id="b3-rq_WjQlA8YxyIdwE0-27" value="value = return" style="html=1;verticalAlign=bottom;endArrow=open;dashed=1;endSize=8;curved=0;rounded=0;exitX=0;exitY=1;exitDx=0;exitDy=-5;" edge="1" parent="1" source="b3-rq_WjQlA8YxyIdwE0-25" target="b3-rq_WjQlA8YxyIdwE0-22">
          <mxGeometry relative="1" as="geometry">
            <mxPoint x="297" y="265" as="targetPoint" />
          </mxGeometry>
        </mxCell>
        <mxCell id="b3-rq_WjQlA8YxyIdwE0-37" value="search(text)" style="html=1;verticalAlign=bottom;endArrow=block;curved=0;rounded=0;entryX=0;entryY=0;entryDx=0;entryDy=5;" edge="1" parent="1" source="b3-rq_WjQlA8YxyIdwE0-25" target="b3-rq_WjQlA8YxyIdwE0-36">
          <mxGeometry relative="1" as="geometry">
            <mxPoint x="403" y="305" as="sourcePoint" />
          </mxGeometry>
        </mxCell>
        <mxCell id="b3-rq_WjQlA8YxyIdwE0-38" value="return" style="html=1;verticalAlign=bottom;endArrow=open;dashed=1;endSize=8;curved=0;rounded=0;exitX=0;exitY=1;exitDx=0;exitDy=-5;" edge="1" parent="1" source="b3-rq_WjQlA8YxyIdwE0-36" target="b3-rq_WjQlA8YxyIdwE0-25">
          <mxGeometry relative="1" as="geometry">
            <mxPoint x="403" y="375" as="targetPoint" />
          </mxGeometry>
        </mxCell>
        <mxCell id="b3-rq_WjQlA8YxyIdwE0-46" value="searchResults.notify()" style="html=1;verticalAlign=bottom;endArrow=open;dashed=1;endSize=8;curved=0;rounded=0;" edge="1" parent="1" source="b3-rq_WjQlA8YxyIdwE0-44" target="b3-rq_WjQlA8YxyIdwE0-45">
          <mxGeometry relative="1" as="geometry">
            <mxPoint x="265" y="410" as="sourcePoint" />
            <mxPoint x="230" y="411" as="targetPoint" />
          </mxGeometry>
        </mxCell>
        <mxCell id="b3-rq_WjQlA8YxyIdwE0-50" value="suggestions" style="html=1;verticalAlign=bottom;endArrow=open;dashed=1;endSize=8;curved=0;rounded=0;exitX=0;exitY=1;exitDx=0;exitDy=-5;exitPerimeter=0;" edge="1" parent="1" source="b3-rq_WjQlA8YxyIdwE0-45" target="b3-rq_WjQlA8YxyIdwE0-49">
          <mxGeometry relative="1" as="geometry">
            <mxPoint x="200" y="470" as="sourcePoint" />
            <mxPoint x="130" y="465" as="targetPoint" />
          </mxGeometry>
        </mxCell>
        <mxCell id="xfMOsYi-v5C7950PNOb1-4" value="select location" style="html=1;verticalAlign=bottom;endArrow=block;curved=0;rounded=0;entryX=0;entryY=0;entryDx=0;entryDy=5;" edge="1" parent="1" source="xfMOsYi-v5C7950PNOb1-2" target="xfMOsYi-v5C7950PNOb1-3">
          <mxGeometry relative="1" as="geometry">
            <mxPoint x="150" y="535" as="sourcePoint" />
          </mxGeometry>
        </mxCell>
        <mxCell id="xfMOsYi-v5C7950PNOb1-7" value="gotoLocation(location)" style="html=1;verticalAlign=bottom;endArrow=block;curved=0;rounded=0;entryX=0;entryY=0;entryDx=0;entryDy=5;" edge="1" parent="1" source="xfMOsYi-v5C7950PNOb1-3" target="xfMOsYi-v5C7950PNOb1-6">
          <mxGeometry relative="1" as="geometry">
            <mxPoint x="230" y="529" as="sourcePoint" />
          </mxGeometry>
        </mxCell>
        <mxCell id="xfMOsYi-v5C7950PNOb1-12" value="searchResults.collectAsState()" style="html=1;verticalAlign=bottom;endArrow=block;curved=0;rounded=0;" edge="1" parent="1" source="xfMOsYi-v5C7950PNOb1-11" target="xfMOsYi-v5C7950PNOb1-13">
          <mxGeometry width="80" relative="1" as="geometry">
            <mxPoint x="240" y="140" as="sourcePoint" />
            <mxPoint x="310" y="140" as="targetPoint" />
          </mxGeometry>
        </mxCell>
        <mxCell id="xfMOsYi-v5C7950PNOb1-14" value="MapUI" style="shape=umlLifeline;perimeter=lifelinePerimeter;whiteSpace=wrap;html=1;container=1;dropTarget=0;collapsible=0;recursiveResize=0;outlineConnect=0;portConstraint=eastwest;newEdgeStyle={&quot;curved&quot;:0,&quot;rounded&quot;:0};participant=umlBoundary;" vertex="1" parent="1">
          <mxGeometry x="820" y="80" width="50" height="1100" as="geometry" />
        </mxCell>
        <mxCell id="xfMOsYi-v5C7950PNOb1-24" value="" style="html=1;points=[[0,0,0,0,5],[0,1,0,0,-5],[1,0,0,0,5],[1,1,0,0,-5]];perimeter=orthogonalPerimeter;outlineConnect=0;targetShapes=umlLifeline;portConstraint=eastwest;newEdgeStyle={&quot;curved&quot;:0,&quot;rounded&quot;:0};" vertex="1" parent="xfMOsYi-v5C7950PNOb1-14">
          <mxGeometry x="20" y="62" width="10" height="9" as="geometry" />
        </mxCell>
        <mxCell id="xfMOsYi-v5C7950PNOb1-34" value="" style="html=1;points=[[0,0,0,0,5],[0,1,0,0,-5],[1,0,0,0,5],[1,1,0,0,-5]];perimeter=orthogonalPerimeter;outlineConnect=0;targetShapes=umlLifeline;portConstraint=eastwest;newEdgeStyle={&quot;curved&quot;:0,&quot;rounded&quot;:0};" vertex="1" parent="xfMOsYi-v5C7950PNOb1-14">
          <mxGeometry x="20" y="83" width="10" height="9" as="geometry" />
        </mxCell>
        <mxCell id="xfMOsYi-v5C7950PNOb1-62" value="" style="html=1;points=[[0,0,0,0,5],[0,1,0,0,-5],[1,0,0,0,5],[1,1,0,0,-5]];perimeter=orthogonalPerimeter;outlineConnect=0;targetShapes=umlLifeline;portConstraint=eastwest;newEdgeStyle={&quot;curved&quot;:0,&quot;rounded&quot;:0};" vertex="1" parent="xfMOsYi-v5C7950PNOb1-14">
          <mxGeometry x="20" y="580" width="10" height="70" as="geometry" />
        </mxCell>
        <mxCell id="xfMOsYi-v5C7950PNOb1-68" value="" style="html=1;points=[[0,0,0,0,5],[0,1,0,0,-5],[1,0,0,0,5],[1,1,0,0,-5]];perimeter=orthogonalPerimeter;outlineConnect=0;targetShapes=umlLifeline;portConstraint=eastwest;newEdgeStyle={&quot;curved&quot;:0,&quot;rounded&quot;:0};" vertex="1" parent="xfMOsYi-v5C7950PNOb1-14">
          <mxGeometry x="25" y="620" width="10" height="20" as="geometry" />
        </mxCell>
        <mxCell id="xfMOsYi-v5C7950PNOb1-69" value="recompose()" style="html=1;align=left;spacingLeft=2;endArrow=block;rounded=0;edgeStyle=orthogonalEdgeStyle;curved=0;rounded=0;" edge="1" parent="xfMOsYi-v5C7950PNOb1-14" target="xfMOsYi-v5C7950PNOb1-68">
          <mxGeometry relative="1" as="geometry">
            <mxPoint x="30" y="600" as="sourcePoint" />
            <Array as="points">
              <mxPoint x="60" y="630" />
            </Array>
          </mxGeometry>
        </mxCell>
        <mxCell id="xfMOsYi-v5C7950PNOb1-105" value="" style="html=1;points=[[0,0,0,0,5],[0,1,0,0,-5],[1,0,0,0,5],[1,1,0,0,-5]];perimeter=orthogonalPerimeter;outlineConnect=0;targetShapes=umlLifeline;portConstraint=eastwest;newEdgeStyle={&quot;curved&quot;:0,&quot;rounded&quot;:0};" vertex="1" parent="xfMOsYi-v5C7950PNOb1-14">
          <mxGeometry x="20" y="970" width="10" height="110" as="geometry" />
        </mxCell>
        <mxCell id="xfMOsYi-v5C7950PNOb1-106" value="" style="html=1;points=[[0,0,0,0,5],[0,1,0,0,-5],[1,0,0,0,5],[1,1,0,0,-5]];perimeter=orthogonalPerimeter;outlineConnect=0;targetShapes=umlLifeline;portConstraint=eastwest;newEdgeStyle={&quot;curved&quot;:0,&quot;rounded&quot;:0};" vertex="1" parent="xfMOsYi-v5C7950PNOb1-14">
          <mxGeometry x="25" y="1030" width="10" height="40" as="geometry" />
        </mxCell>
        <mxCell id="xfMOsYi-v5C7950PNOb1-107" value="recompose()" style="html=1;align=left;spacingLeft=2;endArrow=block;rounded=0;edgeStyle=orthogonalEdgeStyle;curved=0;rounded=0;" edge="1" parent="xfMOsYi-v5C7950PNOb1-14" target="xfMOsYi-v5C7950PNOb1-106">
          <mxGeometry relative="1" as="geometry">
            <mxPoint x="30" y="1010" as="sourcePoint" />
            <Array as="points">
              <mxPoint x="60" y="1040" />
            </Array>
          </mxGeometry>
        </mxCell>
        <mxCell id="xfMOsYi-v5C7950PNOb1-26" value="finalCarparks.collectAsState()" style="html=1;verticalAlign=bottom;endArrow=block;curved=0;rounded=0;exitX=1;exitY=0;exitDx=0;exitDy=5;exitPerimeter=0;" edge="1" parent="1" source="xfMOsYi-v5C7950PNOb1-24" target="xfMOsYi-v5C7950PNOb1-25">
          <mxGeometry width="80" relative="1" as="geometry">
            <mxPoint x="880" y="150" as="sourcePoint" />
            <mxPoint x="867.5" y="149" as="targetPoint" />
          </mxGeometry>
        </mxCell>
        <mxCell id="xfMOsYi-v5C7950PNOb1-35" value="destination.collectAsState()" style="html=1;verticalAlign=bottom;endArrow=block;curved=0;rounded=0;" edge="1" parent="1" source="xfMOsYi-v5C7950PNOb1-34" target="xfMOsYi-v5C7950PNOb1-36">
          <mxGeometry width="80" relative="1" as="geometry">
            <mxPoint x="870" y="180" as="sourcePoint" />
            <mxPoint x="950" y="180" as="targetPoint" />
          </mxGeometry>
        </mxCell>
        <mxCell id="xfMOsYi-v5C7950PNOb1-38" value="NavigationService" style="shape=umlLifeline;perimeter=lifelinePerimeter;whiteSpace=wrap;html=1;container=1;dropTarget=0;collapsible=0;recursiveResize=0;outlineConnect=0;portConstraint=eastwest;newEdgeStyle={&quot;curved&quot;:0,&quot;rounded&quot;:0};participant=umlControl;" vertex="1" parent="1">
          <mxGeometry x="1236" y="81" width="40" height="1099" as="geometry" />
        </mxCell>
        <mxCell id="xfMOsYi-v5C7950PNOb1-51" value="" style="html=1;points=[[0,0,0,0,5],[0,1,0,0,-5],[1,0,0,0,5],[1,1,0,0,-5]];perimeter=orthogonalPerimeter;outlineConnect=0;targetShapes=umlLifeline;portConstraint=eastwest;newEdgeStyle={&quot;curved&quot;:0,&quot;rounded&quot;:0};" vertex="1" parent="xfMOsYi-v5C7950PNOb1-38">
          <mxGeometry x="15" y="599" width="10" height="251" as="geometry" />
        </mxCell>
        <mxCell id="xfMOsYi-v5C7950PNOb1-40" value="PipApi" style="shape=umlLifeline;perimeter=lifelinePerimeter;whiteSpace=wrap;html=1;container=1;dropTarget=0;collapsible=0;recursiveResize=0;outlineConnect=0;portConstraint=eastwest;newEdgeStyle={&quot;curved&quot;:0,&quot;rounded&quot;:0};participant=umlBoundary;" vertex="1" parent="1">
          <mxGeometry x="1336" y="81" width="50" height="1099" as="geometry" />
        </mxCell>
        <mxCell id="xfMOsYi-v5C7950PNOb1-70" value="" style="html=1;points=[[0,0,0,0,5],[0,1,0,0,-5],[1,0,0,0,5],[1,1,0,0,-5]];perimeter=orthogonalPerimeter;outlineConnect=0;targetShapes=umlLifeline;portConstraint=eastwest;newEdgeStyle={&quot;curved&quot;:0,&quot;rounded&quot;:0};" vertex="1" parent="xfMOsYi-v5C7950PNOb1-40">
          <mxGeometry x="20" y="609" width="10" height="231" as="geometry" />
        </mxCell>
        <mxCell id="xfMOsYi-v5C7950PNOb1-42" value="CarparkController" style="shape=umlLifeline;perimeter=lifelinePerimeter;whiteSpace=wrap;html=1;container=1;dropTarget=0;collapsible=0;recursiveResize=0;outlineConnect=0;portConstraint=eastwest;newEdgeStyle={&quot;curved&quot;:0,&quot;rounded&quot;:0};participant=umlBoundary;fillColor=#fff2cc;strokeColor=#d6b656;" vertex="1" parent="1">
          <mxGeometry x="1512" y="80" width="50" height="1100" as="geometry" />
        </mxCell>
        <mxCell id="xfMOsYi-v5C7950PNOb1-73" value="" style="html=1;points=[[0,0,0,0,5],[0,1,0,0,-5],[1,0,0,0,5],[1,1,0,0,-5]];perimeter=orthogonalPerimeter;outlineConnect=0;targetShapes=umlLifeline;portConstraint=eastwest;newEdgeStyle={&quot;curved&quot;:0,&quot;rounded&quot;:0};" vertex="1" parent="xfMOsYi-v5C7950PNOb1-42">
          <mxGeometry x="20" y="617" width="10" height="213" as="geometry" />
        </mxCell>
        <mxCell id="xfMOsYi-v5C7950PNOb1-43" value="CarparkRepository" style="shape=umlLifeline;perimeter=lifelinePerimeter;whiteSpace=wrap;html=1;container=1;dropTarget=0;collapsible=0;recursiveResize=0;outlineConnect=0;portConstraint=eastwest;newEdgeStyle={&quot;curved&quot;:0,&quot;rounded&quot;:0};participant=umlControl;fillColor=#fff2cc;strokeColor=#d6b656;" vertex="1" parent="1">
          <mxGeometry x="1680" y="81" width="40" height="1099" as="geometry" />
        </mxCell>
        <mxCell id="xfMOsYi-v5C7950PNOb1-76" value="" style="html=1;points=[[0,0,0,0,5],[0,1,0,0,-5],[1,0,0,0,5],[1,1,0,0,-5]];perimeter=orthogonalPerimeter;outlineConnect=0;targetShapes=umlLifeline;portConstraint=eastwest;newEdgeStyle={&quot;curved&quot;:0,&quot;rounded&quot;:0};" vertex="1" parent="xfMOsYi-v5C7950PNOb1-43">
          <mxGeometry x="15" y="629" width="10" height="21" as="geometry" />
        </mxCell>
        <mxCell id="xfMOsYi-v5C7950PNOb1-44" value="AvailabilityRepository" style="shape=umlLifeline;perimeter=lifelinePerimeter;whiteSpace=wrap;html=1;container=1;dropTarget=0;collapsible=0;recursiveResize=0;outlineConnect=0;portConstraint=eastwest;newEdgeStyle={&quot;curved&quot;:0,&quot;rounded&quot;:0};participant=umlControl;fillColor=#fff2cc;strokeColor=#d6b656;" vertex="1" parent="1">
          <mxGeometry x="1796" y="81" width="40" height="1099" as="geometry" />
        </mxCell>
        <mxCell id="xfMOsYi-v5C7950PNOb1-85" value="" style="html=1;points=[[0,0,0,0,5],[0,1,0,0,-5],[1,0,0,0,5],[1,1,0,0,-5]];perimeter=orthogonalPerimeter;outlineConnect=0;targetShapes=umlLifeline;portConstraint=eastwest;newEdgeStyle={&quot;curved&quot;:0,&quot;rounded&quot;:0};" vertex="1" parent="xfMOsYi-v5C7950PNOb1-44">
          <mxGeometry x="15" y="739" width="10" height="21" as="geometry" />
        </mxCell>
        <mxCell id="xfMOsYi-v5C7950PNOb1-88" value="" style="html=1;points=[[0,0,0,0,5],[0,1,0,0,-5],[1,0,0,0,5],[1,1,0,0,-5]];perimeter=orthogonalPerimeter;outlineConnect=0;targetShapes=umlLifeline;portConstraint=eastwest;newEdgeStyle={&quot;curved&quot;:0,&quot;rounded&quot;:0};" vertex="1" parent="xfMOsYi-v5C7950PNOb1-44">
          <mxGeometry x="15" y="779" width="10" height="21" as="geometry" />
        </mxCell>
        <mxCell id="xfMOsYi-v5C7950PNOb1-45" value="LocationService" style="shape=umlLifeline;perimeter=lifelinePerimeter;whiteSpace=wrap;html=1;container=1;dropTarget=0;collapsible=0;recursiveResize=0;outlineConnect=0;portConstraint=eastwest;newEdgeStyle={&quot;curved&quot;:0,&quot;rounded&quot;:0};participant=umlControl;fillColor=#fff2cc;strokeColor=#d6b656;" vertex="1" parent="1">
          <mxGeometry x="1916" y="80" width="40" height="1100" as="geometry" />
        </mxCell>
        <mxCell id="xfMOsYi-v5C7950PNOb1-79" value="" style="html=1;points=[[0,0,0,0,5],[0,1,0,0,-5],[1,0,0,0,5],[1,1,0,0,-5]];perimeter=orthogonalPerimeter;outlineConnect=0;targetShapes=umlLifeline;portConstraint=eastwest;newEdgeStyle={&quot;curved&quot;:0,&quot;rounded&quot;:0};" vertex="1" parent="xfMOsYi-v5C7950PNOb1-45">
          <mxGeometry x="15" y="677" width="10" height="33" as="geometry" />
        </mxCell>
        <mxCell id="xfMOsYi-v5C7950PNOb1-46" value="MapboxApi" style="shape=umlLifeline;perimeter=lifelinePerimeter;whiteSpace=wrap;html=1;container=1;dropTarget=0;collapsible=0;recursiveResize=0;outlineConnect=0;portConstraint=eastwest;newEdgeStyle={&quot;curved&quot;:0,&quot;rounded&quot;:0};participant=umlBoundary;fillColor=#fff2cc;strokeColor=#d6b656;" vertex="1" parent="1">
          <mxGeometry x="1986" y="81" width="50" height="1099" as="geometry" />
        </mxCell>
        <mxCell id="xfMOsYi-v5C7950PNOb1-82" value="" style="html=1;points=[[0,0,0,0,5],[0,1,0,0,-5],[1,0,0,0,5],[1,1,0,0,-5]];perimeter=orthogonalPerimeter;outlineConnect=0;targetShapes=umlLifeline;portConstraint=eastwest;newEdgeStyle={&quot;curved&quot;:0,&quot;rounded&quot;:0};" vertex="1" parent="xfMOsYi-v5C7950PNOb1-46">
          <mxGeometry x="20" y="678" width="10" height="22" as="geometry" />
        </mxCell>
        <mxCell id="xfMOsYi-v5C7950PNOb1-52" value="queryNearby(currentLocation, destination)" style="html=1;verticalAlign=bottom;endArrow=block;curved=0;rounded=0;entryX=0;entryY=0;entryDx=0;entryDy=5;" edge="1" parent="1" source="xfMOsYi-v5C7950PNOb1-6" target="xfMOsYi-v5C7950PNOb1-51">
          <mxGeometry relative="1" as="geometry">
            <mxPoint x="1045" y="685" as="sourcePoint" />
          </mxGeometry>
        </mxCell>
        <mxCell id="xfMOsYi-v5C7950PNOb1-53" value="value = return" style="html=1;verticalAlign=bottom;endArrow=open;dashed=1;endSize=8;curved=0;rounded=0;exitX=0;exitY=1;exitDx=0;exitDy=-5;" edge="1" parent="1" source="xfMOsYi-v5C7950PNOb1-51" target="xfMOsYi-v5C7950PNOb1-6">
          <mxGeometry relative="1" as="geometry">
            <mxPoint x="1045" y="755" as="targetPoint" />
          </mxGeometry>
        </mxCell>
        <mxCell id="xfMOsYi-v5C7950PNOb1-66" value="destination.notify()" style="html=1;verticalAlign=bottom;endArrow=open;dashed=1;endSize=8;curved=0;rounded=0;" edge="1" parent="1">
          <mxGeometry relative="1" as="geometry">
            <mxPoint x="1015.5" y="668" as="sourcePoint" />
            <mxPoint x="850" y="668" as="targetPoint" />
          </mxGeometry>
        </mxCell>
        <mxCell id="xfMOsYi-v5C7950PNOb1-71" value="queryNearby(...)" style="html=1;verticalAlign=bottom;endArrow=block;curved=0;rounded=0;entryX=0;entryY=0;entryDx=0;entryDy=5;" edge="1" parent="1" source="xfMOsYi-v5C7950PNOb1-51" target="xfMOsYi-v5C7950PNOb1-70">
          <mxGeometry relative="1" as="geometry">
            <mxPoint x="1286" y="695" as="sourcePoint" />
            <Array as="points" />
          </mxGeometry>
        </mxCell>
        <mxCell id="xfMOsYi-v5C7950PNOb1-72" value="return" style="html=1;verticalAlign=bottom;endArrow=open;dashed=1;endSize=8;curved=0;rounded=0;exitX=0;exitY=1;exitDx=0;exitDy=-5;" edge="1" parent="1" source="xfMOsYi-v5C7950PNOb1-70" target="xfMOsYi-v5C7950PNOb1-51">
          <mxGeometry relative="1" as="geometry">
            <mxPoint x="1286" y="765" as="targetPoint" />
          </mxGeometry>
        </mxCell>
        <mxCell id="xfMOsYi-v5C7950PNOb1-74" value="POST /api/v1/carpark/nearby" style="html=1;verticalAlign=bottom;endArrow=block;curved=0;rounded=0;entryX=0;entryY=0;entryDx=0;entryDy=5;" edge="1" parent="1" source="xfMOsYi-v5C7950PNOb1-70" target="xfMOsYi-v5C7950PNOb1-73">
          <mxGeometry relative="1" as="geometry">
            <mxPoint x="1386" y="715" as="sourcePoint" />
          </mxGeometry>
        </mxCell>
        <mxCell id="xfMOsYi-v5C7950PNOb1-75" value="return" style="html=1;verticalAlign=bottom;endArrow=open;dashed=1;endSize=8;curved=0;rounded=0;exitX=0;exitY=1;exitDx=0;exitDy=-5;" edge="1" parent="1" source="xfMOsYi-v5C7950PNOb1-73" target="xfMOsYi-v5C7950PNOb1-70">
          <mxGeometry relative="1" as="geometry">
            <mxPoint x="1386" y="785" as="targetPoint" />
          </mxGeometry>
        </mxCell>
        <mxCell id="xfMOsYi-v5C7950PNOb1-77" value="filterAndGet(destination)" style="html=1;verticalAlign=bottom;endArrow=block;curved=0;rounded=0;entryX=0;entryY=0;entryDx=0;entryDy=5;" edge="1" parent="1" source="xfMOsYi-v5C7950PNOb1-73" target="xfMOsYi-v5C7950PNOb1-76">
          <mxGeometry relative="1" as="geometry">
            <mxPoint x="1571" y="715" as="sourcePoint" />
          </mxGeometry>
        </mxCell>
        <mxCell id="xfMOsYi-v5C7950PNOb1-78" value="" style="html=1;verticalAlign=bottom;endArrow=open;dashed=1;endSize=8;curved=0;rounded=0;exitX=0;exitY=1;exitDx=0;exitDy=-5;" edge="1" parent="1" source="xfMOsYi-v5C7950PNOb1-76" target="xfMOsYi-v5C7950PNOb1-73">
          <mxGeometry relative="1" as="geometry">
            <mxPoint x="1571" y="785" as="targetPoint" />
          </mxGeometry>
        </mxCell>
        <mxCell id="xfMOsYi-v5C7950PNOb1-80" value="estimateTravelTime(currentLocation, carpark)" style="html=1;verticalAlign=bottom;endArrow=block;curved=0;rounded=0;entryX=0;entryY=0;entryDx=0;entryDy=5;" edge="1" parent="1" source="xfMOsYi-v5C7950PNOb1-73" target="xfMOsYi-v5C7950PNOb1-79">
          <mxGeometry relative="1" as="geometry">
            <mxPoint x="1666" y="765" as="sourcePoint" />
          </mxGeometry>
        </mxCell>
        <mxCell id="xfMOsYi-v5C7950PNOb1-81" value="" style="html=1;verticalAlign=bottom;endArrow=open;dashed=1;endSize=8;curved=0;rounded=0;exitX=0;exitY=1;exitDx=0;exitDy=-5;" edge="1" parent="1" source="xfMOsYi-v5C7950PNOb1-79" target="xfMOsYi-v5C7950PNOb1-73">
          <mxGeometry relative="1" as="geometry">
            <mxPoint x="1805" y="835" as="targetPoint" />
          </mxGeometry>
        </mxCell>
        <mxCell id="xfMOsYi-v5C7950PNOb1-83" value="travel(...)" style="html=1;verticalAlign=bottom;endArrow=block;curved=0;rounded=0;entryX=0;entryY=0;entryDx=0;entryDy=5;" edge="1" parent="1" source="xfMOsYi-v5C7950PNOb1-79" target="xfMOsYi-v5C7950PNOb1-82">
          <mxGeometry relative="1" as="geometry">
            <mxPoint x="1936" y="785" as="sourcePoint" />
          </mxGeometry>
        </mxCell>
        <mxCell id="xfMOsYi-v5C7950PNOb1-84" value="" style="html=1;verticalAlign=bottom;endArrow=open;dashed=1;endSize=8;curved=0;rounded=0;exitX=0;exitY=1;exitDx=0;exitDy=-5;exitPerimeter=0;" edge="1" parent="1" source="xfMOsYi-v5C7950PNOb1-82" target="xfMOsYi-v5C7950PNOb1-79">
          <mxGeometry relative="1" as="geometry">
            <mxPoint x="1941" y="784" as="targetPoint" />
            <mxPoint x="2006" y="784" as="sourcePoint" />
          </mxGeometry>
        </mxCell>
        <mxCell id="xfMOsYi-v5C7950PNOb1-86" value="vacancies(carparkId)" style="html=1;verticalAlign=bottom;endArrow=block;curved=0;rounded=0;entryX=0;entryY=0;entryDx=0;entryDy=5;" edge="1" parent="1" source="xfMOsYi-v5C7950PNOb1-73" target="xfMOsYi-v5C7950PNOb1-85">
          <mxGeometry relative="1" as="geometry">
            <mxPoint x="1681" y="825" as="sourcePoint" />
          </mxGeometry>
        </mxCell>
        <mxCell id="xfMOsYi-v5C7950PNOb1-87" value="" style="html=1;verticalAlign=bottom;endArrow=open;dashed=1;endSize=8;curved=0;rounded=0;exitX=0;exitY=1;exitDx=0;exitDy=-5;" edge="1" parent="1" source="xfMOsYi-v5C7950PNOb1-85" target="xfMOsYi-v5C7950PNOb1-73">
          <mxGeometry relative="1" as="geometry">
            <mxPoint x="1681" y="895" as="targetPoint" />
          </mxGeometry>
        </mxCell>
        <mxCell id="xfMOsYi-v5C7950PNOb1-89" value="vacancies(carparkId, timeOfArrival)" style="html=1;verticalAlign=bottom;endArrow=block;curved=0;rounded=0;entryX=0;entryY=0;entryDx=0;entryDy=5;" edge="1" parent="1" source="xfMOsYi-v5C7950PNOb1-73" target="xfMOsYi-v5C7950PNOb1-88">
          <mxGeometry relative="1" as="geometry">
            <mxPoint x="1681" y="865" as="sourcePoint" />
          </mxGeometry>
        </mxCell>
        <mxCell id="xfMOsYi-v5C7950PNOb1-90" value="" style="html=1;verticalAlign=bottom;endArrow=open;dashed=1;endSize=8;curved=0;rounded=0;exitX=0;exitY=1;exitDx=0;exitDy=-5;" edge="1" parent="1" source="xfMOsYi-v5C7950PNOb1-88" target="xfMOsYi-v5C7950PNOb1-73">
          <mxGeometry relative="1" as="geometry">
            <mxPoint x="1681" y="935" as="targetPoint" />
          </mxGeometry>
        </mxCell>
        <mxCell id="xfMOsYi-v5C7950PNOb1-91" value="CarparkAvailability" style="shape=umlLifeline;perimeter=lifelinePerimeter;whiteSpace=wrap;html=1;container=1;dropTarget=0;collapsible=0;recursiveResize=0;outlineConnect=0;portConstraint=eastwest;newEdgeStyle={&quot;curved&quot;:0,&quot;rounded&quot;:0};participant=umlEntity;fillColor=#fff2cc;strokeColor=#d6b656;" vertex="1" parent="1">
          <mxGeometry x="2060" y="850" width="40" height="330" as="geometry" />
        </mxCell>
        <mxCell id="xfMOsYi-v5C7950PNOb1-92" value="&amp;lt;&amp;lt;create&amp;gt;&amp;gt;" style="html=1;verticalAlign=bottom;endArrow=block;curved=0;rounded=0;" edge="1" parent="1" target="xfMOsYi-v5C7950PNOb1-91">
          <mxGeometry width="80" relative="1" as="geometry">
            <mxPoint x="1542" y="898" as="sourcePoint" />
            <mxPoint x="2019.5" y="898" as="targetPoint" />
          </mxGeometry>
        </mxCell>
        <mxCell id="xfMOsYi-v5C7950PNOb1-104" value="finalCarparks.notify()" style="html=1;verticalAlign=bottom;endArrow=open;dashed=1;endSize=8;curved=0;rounded=0;" edge="1" parent="1" source="xfMOsYi-v5C7950PNOb1-103" target="xfMOsYi-v5C7950PNOb1-105">
          <mxGeometry relative="1" as="geometry">
            <mxPoint x="1001" y="1070" as="sourcePoint" />
            <mxPoint x="921" y="1070" as="targetPoint" />
          </mxGeometry>
        </mxCell>
        <mxCell id="xfMOsYi-v5C7950PNOb1-108" value="carparks" style="html=1;verticalAlign=bottom;endArrow=open;dashed=1;endSize=8;curved=0;rounded=0;" edge="1" parent="1" target="xfMOsYi-v5C7950PNOb1-2">
          <mxGeometry relative="1" as="geometry">
            <mxPoint x="839.9999999999998" y="1154" as="sourcePoint" />
            <mxPoint x="129.875" y="1154" as="targetPoint" />
          </mxGeometry>
        </mxCell>
      </root>
    </mxGraphModel>
  </diagram>
</mxfile>
